# xmcd CD Database Entry
#
# Track frame offsets:
# 150
# 13255
# 32679
# 43085
# 56552
# 70150
# 85249
# 98220
# 111841
# 131100
# 148884
# 166585
# 180728
# 199566
# 216558
# 235094
# 248671
# 262500
# 272331
# 287973
#
# Disc length: 4022 seconds
#
# Revision: 1
# Processed by: cddbd v1.4PL0 Copyright (c) Steve Scherf et al.
# Submitted via: tcd 2.0b
#
DISCID=200fb414
DTITLE=Mati Nuude - Parimad 3
DYEAR=1900
DGENRE=
TTITLE0=Lilleõis (remix)
TTITLE1=Just Siis
TTITLE2=Lase Ise Majandan
TTITLE3=Vaya Con Dios
TTITLE4=Vaat Seal
TTITLE5=Une-Mati
TTITLE6=Suvi
TTITLE7=Sinu Silmad
TTITLE8=Sinine Ja Valge
TTITLE9=Silmad
TTITLE10=Seitse Inglit
TTITLE11=Rohelised Niidud
TTITLE12=Elu On Ilus
TTITLE13=California Blue
TTITLE14=Avavalss
TTITLE15=Armastus On Nagu ...
TTITLE16=Adios Amigo
TTITLE17=Kassid
TTITLE18=Suvi
TTITLE19=Lilleõis
EXTD=
EXTT0=Ralf Zukermann and LL dance remix
EXTT1=
EXTT2=
EXTT3=
EXTT4=
EXTT5=
EXTT6=Ralf Zukermann and LL dance remix
EXTT7=
EXTT8=
EXTT9=M.Nuude and Armin
EXTT10=
EXTT11=
EXTT12=
EXTT13=
EXTT14=
EXTT15=
EXTT16=
EXTT17=
EXTT18=
EXTT19=
PLAYORDER=
